<svg viewBox="0 0 1400 900" xmlns="http://www.w3.org/2000/svg">

  <defs>
    <filter id="starGlow">
      <feGaussianBlur stdDeviation="2.5" result="blur"></feGaussianBlur>
      <feMerge>
        <feMergeNode in="blur"></feMergeNode>
        <feMergeNode in="SourceGraphic"></feMergeNode>
      </feMerge>
    </filter>
  </defs>

  <g stroke="rgba(200,215,255,0.6)" stroke-width="1.1" fill="white" filter="url(#starGlow)">

    <!-- ===== СОЗВЕЗДИЕ I (12 звезд) ===== -->
    <circle cx="120" cy="160" r="3.6"></circle>
    <circle cx="170" cy="130" r="2.2"></circle>
    <circle cx="230" cy="150" r="2.8"></circle>
    <circle cx="290" cy="190" r="2.4"></circle>
    <circle cx="260" cy="240" r="1.9"></circle>
    <circle cx="200" cy="260" r="2.1"></circle>
    <circle cx="150" cy="230" r="1.7"></circle>
    <circle cx="180" cy="190" r="1.4"></circle>
    <circle cx="240" cy="210" r="1.5"></circle>
    <circle cx="310" cy="230" r="1.3"></circle>
    <circle cx="90" cy="200" r="1.2"></circle>
    <circle cx="330" cy="160" r="1.4"></circle>

    <line x1="120" y1="160" x2="170" y2="130"></line>
    <line x1="170" y1="130" x2="230" y2="150"></line>
    <line x1="230" y1="150" x2="290" y2="190"></line>
    <line x1="290" y1="190" x2="260" y2="240"></line>
    <line x1="260" y1="240" x2="200" y2="260"></line>
    <line x1="200" y1="260" x2="150" y2="230"></line>

    <!-- ===== СОЗВЕЗДИЕ II (15 звезд) ===== -->
    <circle cx="1080" cy="130" r="3.8"></circle>
    <circle cx="1120" cy="170" r="2.6"></circle>
    <circle cx="1160" cy="210" r="3.1"></circle>
    <circle cx="1210" cy="250" r="2.4"></circle>
    <circle cx="1250" cy="290" r="3.6"></circle>
    <circle cx="1210" cy="330" r="2.2"></circle>
    <circle cx="1160" cy="310" r="1.9"></circle>
    <circle cx="1110" cy="280" r="1.6"></circle>
    <circle cx="1060" cy="250" r="1.4"></circle>
    <circle cx="1020" cy="210" r="1.3"></circle>
    <circle cx="1000" cy="170" r="1.5"></circle>
    <circle cx="1040" cy="150" r="1.2"></circle>
    <circle cx="1180" cy="150" r="1.4"></circle>
    <circle cx="1280" cy="240" r="1.3"></circle>
    <circle cx="1090" cy="320" r="1.2"></circle>

    <line x1="1080" y1="130" x2="1120" y2="170"></line>
    <line x1="1120" y1="170" x2="1160" y2="210"></line>
    <line x1="1160" y1="210" x2="1210" y2="250"></line>
    <line x1="1210" y1="250" x2="1250" y2="290"></line>
    <line x1="1250" y1="290" x2="1210" y2="330"></line>
    <line x1="1210" y1="330" x2="1160" y2="310"></line>

    <!-- ===== СОЗВЕЗДИЕ III (14 звезд) ===== -->
    <circle cx="300" cy="620" r="3.7"></circle>
    <circle cx="340" cy="590" r="2.4"></circle>
    <circle cx="390" cy="560" r="2.9"></circle>
    <circle cx="440" cy="580" r="2.5"></circle>
    <circle cx="480" cy="610" r="3.4"></circle>
    <circle cx="520" cy="650" r="2.1"></circle>
    <circle cx="500" cy="700" r="1.8"></circle>
    <circle cx="450" cy="730" r="1.5"></circle>
    <circle cx="400" cy="720" r="1.6"></circle>
    <circle cx="360" cy="690" r="1.4"></circle>
    <circle cx="330" cy="650" r="1.2"></circle>
    <circle cx="470" cy="670" r="1.3"></circle>
    <circle cx="420" cy="640" r="1.1"></circle>
    <circle cx="540" cy="600" r="1.2"></circle>

    <line x1="300" y1="620" x2="340" y2="590"></line>
    <line x1="340" y1="590" x2="390" y2="560"></line>
    <line x1="390" y1="560" x2="440" y2="580"></line>
    <line x1="440" y1="580" x2="480" y2="610"></line>
    <line x1="480" y1="610" x2="520" y2="650"></line>
    <line x1="520" y1="650" x2="500" y2="700"></line>
    <line x1="500" y1="700" x2="450" y2="730"></line>

  </g>
</svg>
